<svg width="24" height="24" viewBox="0 0 24 24" fill="none" xmlns="http://www.w3.org/2000/svg">
<path fill-rule="evenodd" clip-rule="evenodd" d="M0 12C0 5.37255 5.3726 0 12 0C18.6275 0 24 5.3726 24 12C24 18.6274 18.6274 24 12 24C5.3726 24 0 18.6275 0 12ZM12.5232 22.3665C15.0953 22.2459 17.5304 21.1719 19.3539 19.3539C20.304 18.4065 21.0611 17.2838 21.5833 16.0479C22.5854 13.6759 22.6684 11.0158 21.8163 8.58597C20.9642 6.1561 19.2379 4.13052 16.9739 2.90392C14.7099 1.67731 12.0703 1.33755 9.56942 1.95084C7.06857 2.56413 4.88563 4.08653 3.44594 6.2214C2.00626 8.35628 1.41297 10.9507 1.78168 13.4991C2.15038 16.0475 3.45468 18.3674 5.44041 20.0067C7.42614 21.6459 9.95106 22.4872 12.5232 22.3665ZM14.9219 11.2L11.1693 7.44727L12.3006 6.31592L17.9847 12L12.3006 17.684L11.1693 16.5527L14.9219 12.8H5.59427V11.2H14.9219Z" fill="url(#paint0_linear_362_1043)"/>
<defs>
<linearGradient id="paint0_linear_362_1043" x1="-3" y1="0.999999" x2="20.5691" y2="22.9257" gradientUnits="userSpaceOnUse">
<stop stop-color="#29CCB9"/>
<stop offset="0.49" stop-color="#0091FF"/>
<stop offset="1" stop-color="#FF66B7"/>
</linearGradient>
</defs>
</svg>
