<svg width="24" height="24" viewBox="0 0 24 24" fill="none" xmlns="http://www.w3.org/2000/svg">
<rect width="24" height="24" rx="10" fill="white"/>
<path d="M17.2319 6.93516C16.2967 6.50179 15.3007 6.18247 14.2515 6C14.1223 6.22809 13.9702 6.53981 13.8714 6.7907C12.7613 6.62344 11.6589 6.62344 10.5717 6.7907C10.4653 6.53981 10.3132 6.22809 10.1839 6C9.13474 6.18247 8.13876 6.50179 7.2036 6.93516C5.31808 9.77866 4.80868 12.5537 5.05958 15.2832C6.31406 16.2183 7.52292 16.781 8.71658 17.1535C9.0131 16.7505 9.2716 16.3172 9.49968 15.8686C9.06632 15.7089 8.65576 15.5037 8.26801 15.268C8.37445 15.1919 8.47329 15.1083 8.57213 15.0323C10.9518 16.1423 13.5292 16.1423 15.8785 15.0323C15.9774 15.1159 16.0762 15.1919 16.1827 15.268C15.7949 15.5037 15.3767 15.7013 14.951 15.8686C15.1791 16.3172 15.4376 16.7505 15.7341 17.1535C16.9277 16.781 18.1442 16.2183 19.3911 15.2832C19.6876 12.1128 18.8817 9.3681 17.2471 6.93516H17.2319ZM9.81901 13.6105C9.10433 13.6105 8.51891 12.9491 8.51891 12.1356C8.51891 11.322 9.08913 10.6606 9.81901 10.6606C10.5489 10.6606 11.1267 11.322 11.1191 12.1356C11.1191 12.9415 10.5489 13.6105 9.81901 13.6105ZM14.6165 13.6105C13.9018 13.6105 13.3164 12.9491 13.3164 12.1356C13.3164 11.322 13.8866 10.6606 14.6165 10.6606C15.3463 10.6606 15.9242 11.322 15.9166 12.1356C15.9166 12.9415 15.3463 13.6105 14.6165 13.6105Z" fill="black"/>
</svg>
