<svg width="24" height="25" viewBox="0 0 24 25" fill="none" xmlns="http://www.w3.org/2000/svg">
<rect y="0.5" width="24" height="24" rx="10" fill="black"/>
<path d="M11.22 5.54952C7.99586 5.90722 5.40253 8.55424 5.05208 11.7736C4.63154 15.3506 6.80433 18.4268 9.88826 19.4285V17.7831C9.88826 17.7831 9.60793 17.8546 9.25749 17.8546C8.27623 17.8546 7.85569 16.996 7.78559 16.4953C7.71551 16.2091 7.57532 15.9945 7.36505 15.7799C7.15478 15.7084 7.0847 15.7084 7.0847 15.6368C7.0847 15.4937 7.29497 15.4937 7.36505 15.4937C7.78559 15.4937 8.13604 15.9945 8.27623 16.2091C8.62667 16.7814 9.04722 16.9245 9.25749 16.9245C9.53784 16.9245 9.7481 16.853 9.88826 16.7814C9.95837 16.2806 10.1687 15.7799 10.5891 15.4937C8.97712 15.136 7.78559 14.206 7.78559 12.632C7.78559 11.8451 8.13604 11.0582 8.62667 10.4858C8.55658 10.3427 8.4865 9.98505 8.4865 9.48427C8.4865 9.1981 8.4865 8.76886 8.69676 8.33962C8.69676 8.33962 9.678 8.33962 10.6592 9.26964C11.0098 9.12656 11.5004 9.05502 11.991 9.05502C12.4816 9.05502 12.9722 9.12656 13.3928 9.26964C14.304 8.33962 15.3554 8.33962 15.3554 8.33962C15.4955 8.76886 15.4955 9.1981 15.4955 9.48427C15.4955 10.0566 15.4255 10.3427 15.3554 10.4858C15.8459 11.0582 16.1964 11.7736 16.1964 12.632C16.1964 14.206 15.0048 15.136 13.3928 15.4937C13.8133 15.8514 14.0936 16.4953 14.0936 17.1392V19.5C16.9674 18.57 19 15.8514 19 12.7036C19 8.41116 15.4255 5.04873 11.22 5.54952Z" fill="white"/>
</svg>
