<svg width="24" height="24" viewBox="0 0 24 24" fill="none" xmlns="http://www.w3.org/2000/svg">
<rect width="24" height="24" rx="10" fill="white"/>
<g clip-path="url(#clip0_614_2737)">
<path d="M11.2757 5.54598C8.28187 5.87813 5.87378 8.33608 5.54836 11.3255C5.15786 14.647 7.17545 17.5035 10.0391 18.4336V16.9057C10.0391 16.9057 9.77879 16.9721 9.45338 16.9721C8.54221 16.9721 8.15171 16.1749 8.08662 15.7099C8.02154 15.4442 7.89137 15.2449 7.69612 15.0456C7.50087 14.9792 7.43579 14.9792 7.43579 14.9127C7.43579 14.7799 7.63104 14.7799 7.69612 14.7799C8.08662 14.7799 8.41204 15.2449 8.54221 15.4442C8.86762 15.9756 9.25813 16.1085 9.45338 16.1085C9.71371 16.1085 9.90895 16.0421 10.0391 15.9756C10.1042 15.5106 10.2995 15.0456 10.6899 14.7799C9.19304 14.4477 8.08662 13.5841 8.08662 12.1226C8.08662 11.3919 8.41204 10.6612 8.86762 10.1297C8.80254 9.99683 8.73746 9.66469 8.73746 9.19968C8.73746 8.93395 8.73746 8.53537 8.93271 8.13679C8.93271 8.13679 9.84386 8.13679 10.755 9.00038C11.0805 8.86752 11.5361 8.80109 11.9916 8.80109C12.4472 8.80109 12.9028 8.86752 13.2933 9.00038C14.1394 8.13679 15.1157 8.13679 15.1157 8.13679C15.2458 8.53537 15.2458 8.93395 15.2458 9.19968C15.2458 9.73112 15.1808 9.99683 15.1157 10.1297C15.5712 10.6612 15.8967 11.3255 15.8967 12.1226C15.8967 13.5841 14.7902 14.4477 13.2933 14.7799C13.6838 15.112 13.9441 15.7099 13.9441 16.3078V18.5C16.6126 17.6364 18.5 15.112 18.5 12.1891C18.5 8.20322 15.1808 5.08096 11.2757 5.54598Z" fill="black"/>
</g>
<defs>
<clipPath id="clip0_614_2737">
<rect width="13" height="13" fill="white" transform="translate(5.5 5.5)"/>
</clipPath>
</defs>
</svg>
