<svg width="24" height="24" viewBox="0 0 24 24" fill="none" xmlns="http://www.w3.org/2000/svg">
<rect width="24" height="24" rx="10" fill="white"/>
<path d="M12.9781 12.4147C12.9781 14.8046 11.0423 16.742 8.65441 16.742C6.26655 16.742 4.33057 14.8046 4.33057 12.4147C4.33057 10.0247 6.26641 8.08716 8.65441 8.08716C11.0424 8.08716 12.9781 10.0247 12.9781 12.4147Z" fill="black"/>
<path d="M17.7213 12.4146C17.7213 14.6642 16.7534 16.4886 15.5594 16.4886C14.3654 16.4886 13.3975 14.6642 13.3975 12.4146C13.3975 10.165 14.3652 8.34058 15.5592 8.34058C16.7532 8.34058 17.7212 10.1644 17.7212 12.4146" fill="black"/>
<path d="M19.6612 12.4146C19.6612 14.4297 19.3208 16.0642 18.9008 16.0642C18.4808 16.0642 18.1406 14.4301 18.1406 12.4146C18.1406 10.399 18.481 8.76489 18.9008 8.76489C19.3207 8.76489 19.6612 10.3989 19.6612 12.4146Z" fill="black"/>
</svg>
