<svg height="212" viewBox="0 0 750 212" width="750" xmlns="http://www.w3.org/2000/svg"><g fill="none" fill-rule="evenodd"><path d="m435.845726 140.327778c-4.140164-1.712972-7.448852-4.248132-9.926164-7.605556-2.477311-3.357424-3.783819-7.399976-3.919562-12.127778h18.528839c.271487 2.672236 1.187739 4.710642 2.748784 6.115278 1.561046 1.404637 3.597162 2.106945 6.108409 2.106945 2.579119 0 4.615235-.599531 6.108409-1.798611 1.493174-1.199081 2.239749-2.860638 2.239749-4.984723 0-1.78149-.593867-3.254623-1.781619-4.419444s-2.646968-2.12407-4.377693-2.877778c-1.730724-.753707-4.191031-1.61018-7.380993-2.569444-4.615266-1.438896-8.38208-2.877771-11.300556-4.316667-2.918477-1.438896-5.429686-3.562949-7.533704-6.372222-2.104018-2.8092735-3.156011-6.4749776-3.156011-10.9972224 0-6.7148484 2.409403-11.9735921 7.228283-15.7763889s11.096904-5.7041667 18.83426-5.7041667c7.873099 0 14.218994 1.9013699 19.037874 5.7041667 4.818879 3.8027968 7.397959 9.0957994 7.737317 15.8791666h-18.83426c-.135743-2.3296412-.984124-4.1624933-2.54517-5.4986111s-3.563226-2.0041666-6.006602-2.0041666c-2.104018 0-3.800781.5652721-5.09034 1.6958333-1.28956 1.1305612-1.93433 2.7578597-1.93433 4.8819444 0 2.3296413 1.085929 4.1453639 3.257818 5.4472223 2.17189 1.3018583 5.565416 2.7064739 10.180681 4.2138888 4.615265 1.5759336 8.365112 3.0833266 11.249653 4.5222226 2.88454 1.438896 5.378782 3.52869 7.4828 6.269444 2.104018 2.740755 3.156011 6.269423 3.156011 10.586111 0 4.111132-1.035025 7.845354-3.105107 11.202778s-5.073353 6.02962-9.009903 8.016667-8.585681 2.980555-13.947533 2.980555c-5.226109 0-9.909175-.856473-14.04934-2.569444zm82.463517-13.052778v14.902778h-8.857193c-6.312054 0-11.232667-1.558781-14.761987-4.676389-3.529321-3.117608-5.293955-8.205057-5.293955-15.2625v-22.8166668h-6.922863v-14.5944444h6.922863v-13.9777778h17.408965v13.9777778h11.402363v14.5944444h-11.402363v23.0222218c0 1.712972.407223 2.946293 1.221682 3.7.814458.753708 2.171869 1.130556 4.072272 1.130556zm20.514072 12.127778c-4.445586-2.39816-7.940919-5.824052-10.486102-10.277778s-3.817755-9.661081-3.817755-15.622222c0-5.892622 1.28954-11.082848 3.868659-15.5708336 2.579119-4.4879854 6.108386-7.9310065 10.587908-10.3291666 4.479522-2.3981602 9.501941-3.5972222 15.067408-3.5972222s10.587886 1.199062 15.067408 3.5972222c4.479522 2.3981601 8.008789 5.8411812 10.587908 10.3291666 2.579119 4.4879856 3.868659 9.6782116 3.868659 15.5708336s-1.306508 11.082848-3.919562 15.570833c-2.613055 4.487986-6.176258 7.931007-10.689715 10.329167-4.513458 2.39816-9.552845 3.597222-15.118312 3.597222-5.565466 0-10.570918-1.199062-15.016504-3.597222zm23.517373-15.313889c2.341568-2.466679 3.512335-5.995348 3.512335-10.586111 0-4.590764-1.136831-8.119432-3.410528-10.586111s-5.073356-3.7000003-8.399062-3.7000003c-3.393577 0-6.210204 1.2161913-8.449965 3.6486113-2.239761 2.432419-3.359625 5.978217-3.359625 10.6375 0 4.590763 1.102896 8.119432 3.308721 10.586111 2.205826 2.466679 4.97155 3.7 8.297255 3.7 3.325706 0 6.159301-1.233321 8.500869-3.7zm81.038221-33.351389c3.970485 4.3509477 5.955698 10.329129 5.955698 17.934722v33.505556h-17.307157v-31.141667c0-3.837056-.984123-6.817582-2.952398-8.941667-1.968275-2.1240842-4.615225-3.1861107-7.940931-3.1861107s-5.972656 1.0620265-7.940931 3.1861107c-1.968275 2.124085-2.952398 5.104611-2.952398 8.941667v31.141667h-17.408964v-57.3500002h17.408964v7.6055555c1.76466-2.5351978 4.140129-4.5393445 7.126477-6.0125s6.345939-2.2097222 10.078874-2.2097222c6.651412 0 11.962281 2.1754412 15.932766 6.5263889zm71.315671 26.979167h-39.399236c.271486 3.56298 1.408318 6.286564 3.410528 8.170833 2.002211 1.884269 4.462517 2.826389 7.380994 2.826389 4.343779 0 7.364017-1.849982 9.060806-5.55h18.528839c-.950201 3.768537-2.663932 7.16017-5.141243 10.175-2.477312 3.01483-5.582389 5.378695-9.315324 7.091667-3.732935 1.712971-7.906972 2.569444-12.522237 2.569444-5.565467 0-10.520016-1.199062-14.863795-3.597222s-7.737305-5.824052-10.180681-10.277778c-2.443375-4.453726-3.665045-9.661081-3.665045-15.622222s1.204702-11.168496 3.614142-15.6222224c2.40944-4.453726 5.785999-7.8796177 10.129778-10.2777778 4.343779-2.3981602 9.332262-3.5972222 14.965601-3.5972222 5.497595 0 10.384273 1.1648031 14.66018 3.4944444 4.275908 2.3296413 7.618531 5.6527562 10.027971 9.9694444 2.40944 4.3166886 3.614142 9.3527486 3.614142 15.1083336 0 1.644452-.101806 3.357398-.30542 5.138889zm-17.510772-9.763889c0-3.01483-1.018058-5.412954-3.054204-7.194445-2.036146-1.7814901-4.581291-2.6722219-7.635511-2.6722219-2.918476 0-5.378783.8564729-7.380994 2.5694449-2.00221 1.712971-3.240847 4.145354-3.715948 7.297222z" fill="#24355b"/><g fill="#fd627a"><path d="m261.384755 142-14.838476-27.179487h-4.166969v27.179487h-17.37931v-72h29.168784c5.623743 0 10.417403.9914431 14.381125 2.974359s6.928 4.7008374 8.892922 8.1538461 2.947369 7.2991241 2.947369 11.5384616c0 4.7863487-1.33816 9.0598103-4.014519 12.8205123-2.67636 3.760703-6.623084 6.427343-11.840291 8l16.46461 28.512821zm-19.005445-39.589744h10.77314c3.184529 0 5.57289-.786317 7.165154-2.358974 1.592265-1.5726574 2.388385-3.7948574 2.388385-6.6666666 0-2.7350564-.79612-4.888881-2.388385-6.4615385-1.592264-1.5726574-3.980625-2.3589743-7.165154-2.3589743h-10.77314z"/><path d="m344.694643 117.714286h-39.391072c.27143 3.563316 1.408026 6.287156 3.409822 8.171603 2.001796 1.884446 4.461592 2.826655 7.379464 2.826655 4.342879 0 7.362492-1.850156 9.058929-5.550523h18.525c-.950005 3.768892-2.663381 7.160844-5.140179 10.175958s-5.581231 5.379202-9.313393 7.092335c-3.732161 1.713132-7.905334 2.569686-12.519643 2.569686-5.564313 0-10.517835-1.199175-14.860714-3.597561s-7.735702-5.8246-10.178571-10.278746c-2.44287-4.454145-3.664286-9.661991-3.664286-15.623693s1.204452-11.169548 3.613393-15.6236934c2.40894-4.4541454 5.7848-7.8803596 10.127678-10.2787456 4.342879-2.398386 9.330329-3.597561 14.9625-3.597561 5.496456 0 10.382122 1.1649129 14.657143 3.4947735 4.275022 2.3298607 7.616953 5.6532885 10.025893 9.9703833 2.408941 4.3170952 3.613393 9.3536302 3.613393 15.1097562 0 1.644607-.101785 3.357715-.305357 5.139373zm-17.507143-9.764809c0-3.015113-1.017847-5.413463-3.053571-7.195122-2.035725-1.7816578-4.580342-2.6724735-7.633929-2.6724735-2.917872 0-5.377669.8565536-7.379464 2.5696865-2.001796 1.713133-3.240176 4.145745-3.715179 7.297909z"/><path d="m354.310696 97.3957219c2.207142-4.402874 5.212205-7.7896494 9.01528-10.1604278 3.803075-2.3707783 8.047515-3.5561497 12.733447-3.5561497 3.735163 0 7.147692.7789583 10.237691 2.3368984 3.089998 1.55794 5.517818 3.6577408 7.283531 6.2994652v-26.315508h17.419355v75.187166h-17.419355v-8.128342c-1.629889 2.70946-3.955842 4.876997-6.977929 6.502673-3.022086 1.625677-6.536482 2.438503-10.543293 2.438503-4.685932 0-8.930372-1.202305-12.733447-3.606952-3.803075-2.404646-6.808138-5.82529-9.01528-10.262032s-3.310696-9.567707-3.310696-15.393048 1.103554-10.939372 3.310696-15.3422461zm35.65365 5.1818181c-2.410878-2.506251-5.34803-3.7593582-8.811545-3.7593582-3.463514 0-6.400667 1.2361732-8.811545 3.7085562s-3.616298 5.876092-3.616298 10.21123c0 4.335137 1.20542 7.772714 3.616298 10.312834s5.348031 3.810161 8.811545 3.810161c3.463515 0 6.400667-1.253107 8.811545-3.759359 2.410878-2.506251 3.616299-5.926894 3.616299-10.262032 0-4.335137-1.205421-7.755781-3.616299-10.262032z"/><g transform="translate(35 45)"><path d="m119.294738 58.6990652-18.581297-30.729081 9.624315-15.7495701 28.104613 46.4786511zm-63.2498752 43.1860748h37.5665836l9.3778056 15.371494h-56.1534914zm37.5531172-78.0736255h-37.598379l-9.1900249-15.40757217h56.2032419zm-.0284289 69.8055431h-37.5804239l-18.6059851-30.7685423 18.6059851-30.7689181h37.5804239l18.6052369 30.7689181zm-54.05798-81.3635711 9.3542394 15.6822979-18.5966334 30.7535095h-18.836035zm-28.0870324 54.7038901h18.813965l18.6493766 30.8407001-9.363217 15.6300583zm98.9008723 46.5030794-9.605236-15.7446843 18.593266-30.7486238h19.125561zm3.536035-111.33687412c-.746259-1.23419926-2.079426-1.98772225-3.516583-1.98772225h-70.8201997c-1.4375311 0-2.7706982.75352299-3.5165835 1.98772225l-35.40972568 58.56019902c-.79750624 1.3187592-.79788031 2.973879-.00037407 4.2926382l35.41009975 58.5601989c.7458853 1.234575 2.0790524 1.988098 3.5165835 1.988098h70.8201997c1.437157 0 2.770324-.753523 3.516583-1.988098l35.4101-58.5601989c.79788-1.3187592.79788-2.973879 0-4.2926382z"/><path d="m96.076384 69.2877733c-1.9193266-1.2210455-4.4618453-.6486687-5.6779301 1.2804253l-7.2826684 11.5523907c-1.2157107 1.9287182-.6452618 4.4828041 1.2744389 5.7046012.6830424.4344502 1.4450125.6419039 2.198005.6419039 1.3627182 0 2.6966334-.6798619 3.4799252-1.9223293l7.2826683-11.5523906c1.2160848-1.9287182.6452619-4.4828041-1.2744389-5.7046012"/><path d="m102.063254 58.6498701c-1.957855-1.1575315-4.4809223-.5009706-5.633042 1.4672089l-.5356609.9151264c-1.1521197 1.9678037-.4982543 4.5015952 1.4607232 5.6591268.6549875.3874724 1.373192.5716252 2.0820449.5716252 1.4102248 0 2.7837908-.7290946 3.5506238-2.038834l.53566-.9147506c1.15212-1.9681796.498255-4.5015953-1.460349-5.6595027"/></g></g></g></svg>