<svg width="24" height="24" viewBox="0 0 24 24" fill="none" xmlns="http://www.w3.org/2000/svg">
<rect width="24" height="24" rx="10" fill="white"/>
<path d="M19 8.30243C18.4852 8.52298 17.9321 8.672 17.3507 8.73935C17.9438 8.39601 18.3988 7.8512 18.6134 7.20267C18.0585 7.52097 17.4438 7.75225 16.7896 7.87623C16.2655 7.33738 15.5194 7 14.6932 7C13.1074 7 11.8212 8.24342 11.8212 9.77772C11.8212 9.99469 11.8471 10.2057 11.8952 10.4096C9.50718 10.2933 7.3917 9.1876 5.97481 7.50786C5.72818 7.91915 5.58636 8.39601 5.58636 8.90387C5.58636 9.86713 6.09381 10.7177 6.86391 11.2155C6.39285 11.2006 5.95014 11.076 5.56293 10.8679V10.9037C5.56293 12.249 6.55254 13.3715 7.86708 13.6266C7.62539 13.6898 7.37197 13.7231 7.11054 13.7231C6.92557 13.7231 6.74491 13.7065 6.56981 13.6743C6.93544 14.777 7.99595 15.5805 9.25315 15.602C8.26971 16.3471 7.031 16.7912 5.68563 16.7912C5.4538 16.7912 5.22505 16.778 5 16.7524C6.27138 17.541 7.78076 18 9.40236 18C14.6864 18 17.5751 13.769 17.5751 10.0996C17.5751 9.98039 17.572 9.85998 17.5665 9.74076C18.1275 9.34854 18.6146 8.86036 18.9988 8.30422L19 8.30243Z" fill="black"/>
</svg>
