<svg width="25" height="25" viewBox="0 0 25 25" fill="none" xmlns="http://www.w3.org/2000/svg">
<rect x="0.18457" y="0.5" width="24" height="24" rx="10" fill="black"/>
<path d="M17.9341 9.79341C17.7915 9.28738 17.3969 8.89051 16.8886 8.75021C15.9527 8.50001 12.1903 8.50001 12.1903 8.50001C12.1903 8.50001 8.43502 8.49401 7.48936 8.75021C6.9837 8.89088 6.58721 9.28738 6.44616 9.79341C6.26873 10.7526 6.18058 11.7234 6.18471 12.6987C6.18283 13.6676 6.27061 14.6369 6.44616 15.5901C6.58721 16.0961 6.9837 16.493 7.48936 16.6355C8.42527 16.8857 12.1903 16.8857 12.1903 16.8857C12.1903 16.8857 15.9433 16.8857 16.8886 16.6355C17.3969 16.493 17.7915 16.0965 17.9341 15.5901C18.1062 14.6369 18.1903 13.6676 18.1843 12.6987C18.1903 11.7234 18.1081 10.7526 17.9341 9.79341ZM10.9884 14.4944V10.8951L14.1203 12.6987L10.9884 14.4944Z" fill="white"/>
</svg>
