<svg width="24" height="24" viewBox="0 0 24 24" fill="none" xmlns="http://www.w3.org/2000/svg">
<rect width="24" height="24" rx="10" fill="white"/>
<path d="M17.7495 9.29341C17.6069 8.78738 17.2123 8.39051 16.704 8.25021C15.7681 8.00001 12.0057 8.00001 12.0057 8.00001C12.0057 8.00001 8.25045 7.99401 7.30479 8.25021C6.79913 8.39088 6.40264 8.78738 6.26159 9.29341C6.08416 10.2526 5.99601 11.2234 6.00014 12.1987C5.99826 13.1676 6.08604 14.1369 6.26159 15.0901C6.40264 15.5961 6.79913 15.993 7.30479 16.1355C8.2407 16.3857 12.0057 16.3857 12.0057 16.3857C12.0057 16.3857 15.7588 16.3857 16.704 16.1355C17.2123 15.993 17.6069 15.5965 17.7495 15.0901C17.9217 14.1369 18.0057 13.1676 17.9997 12.1987C18.0057 11.2234 17.9235 10.2526 17.7495 9.29341ZM10.8039 13.9944V10.3951L13.9357 12.1987L10.8039 13.9944Z" fill="black"/>
</svg>
